<svg id="Layer_1" data-name="Layer 1" xmlns="http://www.w3.org/2000/svg" xmlns:xlink="http://www.w3.org/1999/xlink" viewBox="0 0 500 500"><defs><style>.cls-1{fill:url(#linear-gradient);}.cls-2{fill:#1a1a1a;}</style><linearGradient id="linear-gradient" x1="94.4" y1="274.5" x2="180.18" y2="213.37" gradientUnits="userSpaceOnUse"><stop offset="0" stop-color="aqua"/><stop offset="1" stop-color="blue"/></linearGradient></defs><path class="cls-1" d="M162.09,217.36v31a31,31,0,1,1-31-31l15.79,15.17H131.13a15.79,15.79,0,1,0,15.79,15.79V232.53l6.11-6.1Z"/><path class="cls-2" d="M188.6,233.44a12.16,12.16,0,0,1,9.68,4.6V224h7.6v39.58h-7.6v-4.39a11.2,11.2,0,0,1-9.73,4.87C181,264,175,257.89,175,248.63S181,233.44,188.6,233.44Zm1.87,6.58c-4,0-7.81,3-7.81,8.61s3.8,8.83,7.81,8.83,7.86-3.1,7.86-8.72S194.59,240,190.47,240Z"/><path class="cls-2" d="M226.15,264c-8.61,0-14.87-6-14.87-15.3s6.1-15.3,14.87-15.3c8.55,0,14.6,5.83,14.6,14.66a17.66,17.66,0,0,1-.22,2.89H218.87c.38,4.38,3.37,6.84,7.12,6.84a6.09,6.09,0,0,0,5.93-3.58H240C238.4,259.71,233.47,264,226.15,264ZM218.93,246H233c-.1-3.9-3.21-6.36-7.06-6.36C222.35,239.6,219.51,241.9,218.93,246Z"/><path class="cls-2" d="M253.69,263.56h-7.48V233.93h7.48v4.6a10.3,10.3,0,0,1,9.1-5v7.86h-2c-4.44,0-7.12,1.71-7.12,7.44Z"/><path class="cls-2" d="M309.26,247.19c0-4.71-2.62-7.17-6.58-7.17s-6.63,2.46-6.63,7.17v16.37h-7.48V247.19c0-4.71-2.62-7.17-6.58-7.17s-6.69,2.46-6.69,7.17v16.37h-7.49V233.93h7.49v3.58a10.79,10.79,0,0,1,8.72-4c4.6,0,8.4,2,10.43,5.67a11.72,11.72,0,0,1,10.16-5.67c7.11,0,12.14,4.49,12.14,12.67v17.39h-7.49Z"/><path class="cls-2" d="M335.47,233.44a11.72,11.72,0,0,1,9.79,4.71v-4.22h7.54v29.63h-7.54v-4.34a11.67,11.67,0,0,1-9.84,4.82c-7.49,0-13.48-6.15-13.48-15.41S327.93,233.44,335.47,233.44ZM337.4,240c-4,0-7.81,3-7.81,8.61s3.8,8.83,7.81,8.83,7.86-3.1,7.86-8.72S341.52,240,337.4,240Z"/><path class="cls-2" d="M361.31,240.08h-3.53v-6.15h3.53V226.6h7.54v7.33h6.63v6.15h-6.63v14.33c0,2,.8,2.84,3.15,2.84h3.48v6.31h-4.71c-5.66,0-9.46-2.41-9.46-9.2Z"/><path class="cls-2" d="M393.83,264c-8.61,0-14.87-6-14.87-15.3s6.1-15.3,14.87-15.3c8.55,0,14.6,5.83,14.6,14.66a17.66,17.66,0,0,1-.22,2.89H386.55c.38,4.38,3.37,6.84,7.12,6.84a6.09,6.09,0,0,0,5.93-3.58h8.08C406.08,259.71,401.15,264,393.83,264ZM386.61,246h14.06c-.1-3.9-3.21-6.36-7.06-6.36C390,239.6,387.19,241.9,386.61,246Z"/></svg>